# xmcd
#
# Track frame offsets: 
#        150
#        20134
#        33524
#        61749
#        77011
#        101598
#        122933
#        143938
#        167691
#        183202
#        203223
#        224021
#
# Disc length: 3199 seconds
#
# Revision: 0
# Processed by: cddbd v1.5.2PL0 Copyright (c) Steve Scherf et al.
# Submitted via: ExactAudioCopyFreeDBPlugin 1.0
#
DISCID=ad0c7d0c
DTITLE=Cécile Doo-Kingeé - Anybody Listening Part 2: Dialogues
DYEAR=2016
DGENRE=Blues;Hillside
TTITLE0=Riot and Revolution
TTITLE1=Sweet Talkin' Devil
TTITLE2=Anybody Listening
TTITLE3=Little Bit
TTITLE4=Six Letters ft. JC Dook, Daniel Joseph and Jesse Padgett
TTITLE5=Thankful
TTITLE6=Pure Entertainment
TTITLE7=Animal Kingdom ft. Kim Richardson and Alan Prater
TTITLE8=Bloodstained Vodka
TTITLE9=Faith
TTITLE10=Sunshine Lady ft. Malika Tirolien
TTITLE11=Manic Depression
EXTD=
EXTT0=
EXTT1=
EXTT2=
EXTT3=
EXTT4=
EXTT5=
EXTT6=
EXTT7=
EXTT8=
EXTT9=
EXTT10=
EXTT11=
PLAYORDER=
